<?xml version="1.0" encoding="UTF-8" standalone="no"?>
<!-- Created with Inkscape (http://www.inkscape.org/) -->

<svg
   xmlns:dc="http://purl.org/dc/elements/1.1/"
   xmlns:cc="http://creativecommons.org/ns#"
   xmlns:rdf="http://www.w3.org/1999/02/22-rdf-syntax-ns#"
   xmlns:svg="http://www.w3.org/2000/svg"
   xmlns="http://www.w3.org/2000/svg"
   xmlns:sodipodi="http://sodipodi.sourceforge.net/DTD/sodipodi-0.dtd"
   xmlns:inkscape="http://www.inkscape.org/namespaces/inkscape"
   width="210mm"
   height="297mm"
   viewBox="0 0 744.09448819 1052.3622047"
   id="svg2"
   version="1.1"
   inkscape:version="0.91 r13725"
   sodipodi:docname="iconography.svg">
  <defs
     id="defs4" />
  <sodipodi:namedview
     id="base"
     pagecolor="#ffffff"
     bordercolor="#666666"
     borderopacity="1.0"
     inkscape:pageopacity="0.0"
     inkscape:pageshadow="2"
     inkscape:zoom="0.49497474"
     inkscape:cx="-560.53277"
     inkscape:cy="1353.2196"
     inkscape:document-units="px"
     inkscape:current-layer="layer1"
     showgrid="false"
     inkscape:window-width="1366"
     inkscape:window-height="745"
     inkscape:window-x="-8"
     inkscape:window-y="-8"
     inkscape:window-maximized="1" />
  <metadata
     id="metadata7">
    <rdf:RDF>
      <cc:Work
         rdf:about="">
        <dc:format>image/svg+xml</dc:format>
        <dc:type
           rdf:resource="http://purl.org/dc/dcmitype/StillImage" />
        <dc:title />
      </cc:Work>
    </rdf:RDF>
  </metadata>
  <g
     inkscape:label="Capa 1"
     inkscape:groupmode="layer"
     id="layer1">
    <path
       sodipodi:nodetypes="cccccc"
       inkscape:connector-curvature="0"
       id="path4356"
       d="m -678.82367,-230.89901 97.84225,0 0,-125.28582 -70.39869,0 -26.84697,26.84696 z"
       style="fill:#ffffff;fill-opacity:1;fill-rule:evenodd;stroke:#000000;stroke-width:1.20000005;stroke-linecap:butt;stroke-linejoin:miter;stroke-miterlimit:4;stroke-dasharray:none;stroke-opacity:1" />
    <g
       id="lock_red"
       inkscape:export-xdpi="90"
       inkscape:export-ydpi="90"
       transform="matrix(1.4399999,0,0,1.4399999,275.87566,-62.938172)">
      <rect
         style="fill:none;fill-opacity:1;stroke:none;stroke-width:1.20000005;stroke-linecap:round;stroke-linejoin:round;stroke-miterlimit:4;stroke-dasharray:none;stroke-opacity:1"
         id="rect4279"
         width="100"
         height="100"
         x="-318.48309"
         y="-342.65338" />
      <g
         transform="matrix(1.1135744,0,0,1.1135744,44.683001,15.795437)"
         id="g4423">
        <path
           inkscape:connector-curvature="0"
           id="path4242"
           d="m -308.29011,-276.88239 0,6.19068 54.12816,0 0,-6.19068 -54.12816,0 z"
           style="fill:#ff8080;fill-opacity:1;stroke:none;stroke-width:0.5;stroke-linecap:round;stroke-linejoin:round;stroke-miterlimit:4;stroke-dasharray:none;stroke-opacity:1" />
        <rect
           y="-270.69174"
           x="-308.2901"
           height="38.602341"
           width="54.128159"
           id="rect4244"
           style="fill:#ffaaaa;fill-opacity:1;stroke:none;stroke-width:0.5;stroke-linecap:round;stroke-linejoin:round;stroke-miterlimit:4;stroke-dasharray:none;stroke-opacity:1" />
        <path
           sodipodi:nodetypes="cccccccccccccccc"
           inkscape:connector-curvature="0"
           id="path4246"
           d="m -281.22604,-321.89032 c -12.63265,0.0116 -23.18794,9.62127 -24.38162,22.19741 l -0.13214,0 0,8.6672 9.8055,0 c 0.11351,-5.1191 -0.1863,-3.07028 0.0657,-8.18568 0.37958,-7.70635 8.80746,-12.70701 14.64259,-12.87342 7.9243,0.005 14.42022,6.28681 14.69055,14.20649 l 0.0177,0 0,0.50177 0,24.26084 9.80551,0 0,-24.26084 0,-0.50177 -0.0249,0 c -0.27296,-13.33256 -11.15354,-24.00126 -24.48889,-24.012 z"
           style="fill:#ffaaaa;fill-opacity:1;stroke:none;stroke-width:0.5;stroke-linecap:round;stroke-linejoin:round;stroke-miterlimit:4;stroke-dasharray:none;stroke-opacity:1" />
        <ellipse
           ry="1.5230358"
           rx="5.4477816"
           cy="-273.90756"
           cx="-300.71399"
           id="ellipse4248"
           style="fill:#ff5555;fill-opacity:1;stroke:none;stroke-width:0.5;stroke-linecap:round;stroke-linejoin:round;stroke-miterlimit:4;stroke-dasharray:none;stroke-opacity:1" />
      </g>
    </g>
    <g
       id="lock_orange"
       inkscape:export-xdpi="90"
       inkscape:export-ydpi="90"
       transform="matrix(1.4399999,0,0,1.4399999,312.37755,-62.938172)">
      <rect
         y="-342.65338"
         x="-206.97234"
         height="100"
         width="100"
         id="rect4281"
         style="fill:none;fill-opacity:1;stroke:none;stroke-width:1.20000005;stroke-linecap:round;stroke-linejoin:round;stroke-miterlimit:4;stroke-dasharray:none;stroke-opacity:1" />
      <g
         transform="matrix(1.1135744,0,0,1.1135744,42.450092,15.795437)"
         id="g4429">
        <path
           style="fill:#ffb380;fill-opacity:1;stroke:none;stroke-width:4;stroke-linecap:round;stroke-linejoin:round;stroke-miterlimit:4;stroke-dasharray:none;stroke-opacity:1"
           d="m -206.14725,-276.88239 0,6.19068 54.12816,0 0,-6.19068 -54.12816,0 z"
           id="path4250"
           inkscape:connector-curvature="0" />
        <rect
           style="fill:#ffccaa;fill-opacity:1;stroke:none;stroke-width:4;stroke-linecap:round;stroke-linejoin:round;stroke-miterlimit:4;stroke-dasharray:none;stroke-opacity:1"
           id="rect4252"
           width="54.128159"
           height="38.602341"
           x="-206.14723"
           y="-270.69174" />
        <path
           style="fill:#ffccaa;fill-opacity:1;stroke:none;stroke-width:4;stroke-linecap:round;stroke-linejoin:round;stroke-miterlimit:4;stroke-dasharray:none;stroke-opacity:1"
           d="m -179.08318,-321.89032 c -12.63265,0.0116 -23.18794,9.62127 -24.38162,22.19741 l -0.13214,0 0,8.6672 9.8055,0 c 0.11351,-5.1191 -0.1863,-3.07028 0.0657,-8.18568 0.37958,-7.70635 8.80746,-12.70701 14.64259,-12.87342 7.9243,0.005 14.42022,6.28681 14.69055,14.20649 l 0.0177,0 0,0.50177 0,24.26084 9.80551,0 0,-24.26084 0,-0.50177 -0.0249,0 c -0.27296,-13.33256 -11.15354,-24.00126 -24.48889,-24.012 z"
           id="path4254"
           inkscape:connector-curvature="0"
           sodipodi:nodetypes="cccccccccccccccc" />
        <ellipse
           style="fill:#ff9955;fill-opacity:1;stroke:none;stroke-width:4;stroke-linecap:round;stroke-linejoin:round;stroke-miterlimit:4;stroke-dasharray:none;stroke-opacity:1"
           id="ellipse4256"
           cx="-198.57112"
           cy="-273.90756"
           rx="5.4477816"
           ry="1.5230358" />
      </g>
    </g>
    <g
       id="lock_green"
       inkscape:export-xdpi="90"
       inkscape:export-ydpi="90"
       transform="matrix(1.44,0,0,1.44,236.41193,-16.353067)">
      <rect
         style="fill:none;fill-opacity:1;stroke:none;stroke-width:1.20000005;stroke-linecap:round;stroke-linejoin:round;stroke-miterlimit:4;stroke-dasharray:none;stroke-opacity:1"
         id="rect4291"
         width="100"
         height="100"
         x="-427.93701"
         y="-215.51053" />
      <g
         transform="matrix(1.1135748,0,0,1.1135748,48.637416,28.399302)"
         id="g4459">
        <path
           inkscape:connector-curvature="0"
           id="path4258"
           d="m -410.13168,-174.02525 0,6.19068 54.12816,0 0,-6.19068 -54.12816,0 z"
           style="fill:#80ff80;fill-opacity:1;stroke:none;stroke-width:4;stroke-linecap:round;stroke-linejoin:round;stroke-miterlimit:4;stroke-dasharray:none;stroke-opacity:1" />
        <rect
           y="-167.83464"
           x="-410.13168"
           height="38.602341"
           width="54.128159"
           id="rect4260"
           style="fill:#aaffaa;fill-opacity:1;stroke:none;stroke-width:4;stroke-linecap:round;stroke-linejoin:round;stroke-miterlimit:4;stroke-dasharray:none;stroke-opacity:1" />
        <path
           sodipodi:nodetypes="cccccccccccccccc"
           inkscape:connector-curvature="0"
           id="path4262"
           d="m -383.06761,-219.03318 c -12.63265,0.0116 -23.18794,9.62127 -24.38162,22.19741 l -0.13214,0 0,8.6672 9.8055,0 c 0.11351,-5.1191 -0.1863,-3.07028 0.0657,-8.18568 0.37958,-7.70635 8.80746,-12.70701 14.64259,-12.87342 7.9243,0.005 14.42022,6.28681 14.69055,14.20649 l 0.0177,0 0,0.50177 0,24.26084 9.80551,0 0,-24.26084 0,-0.50177 -0.0249,0 c -0.27296,-13.33256 -11.15354,-24.00126 -24.48889,-24.012 z"
           style="fill:#aaffaa;fill-opacity:1;stroke:none;stroke-width:4;stroke-linecap:round;stroke-linejoin:round;stroke-miterlimit:4;stroke-dasharray:none;stroke-opacity:1" />
        <ellipse
           ry="1.5230358"
           rx="5.4477816"
           cy="-171.05046"
           cx="-402.55557"
           id="ellipse4264"
           style="fill:#00ff66;fill-opacity:1;stroke:none;stroke-width:4;stroke-linecap:round;stroke-linejoin:round;stroke-miterlimit:4;stroke-dasharray:none;stroke-opacity:1" />
      </g>
    </g>
    <g
       id="lock_blue"
       inkscape:export-xdpi="90"
       inkscape:export-ydpi="90"
       transform="matrix(1.44,0,0,1.44,275.08931,-16.353067)">
      <rect
         y="-215.51053"
         x="-317.93701"
         height="100"
         width="100"
         id="rect4289"
         style="fill:none;fill-opacity:1;stroke:none;stroke-width:1.20000005;stroke-linecap:round;stroke-linejoin:round;stroke-miterlimit:4;stroke-dasharray:none;stroke-opacity:1" />
      <g
         transform="matrix(1.1135748,0,0,1.1135748,47.836707,28.399302)"
         id="g4453">
        <path
           style="fill:#87decd;fill-opacity:1;stroke:none;stroke-width:4;stroke-linecap:round;stroke-linejoin:round;stroke-miterlimit:4;stroke-dasharray:none;stroke-opacity:1"
           d="m -310.63165,-174.02525 0,6.19068 54.12816,0 0,-6.19068 -54.12816,0 z"
           id="path4266"
           inkscape:connector-curvature="0" />
        <rect
           style="fill:#afe9dd;fill-opacity:1;stroke:none;stroke-width:4;stroke-linecap:round;stroke-linejoin:round;stroke-miterlimit:4;stroke-dasharray:none;stroke-opacity:1"
           id="rect4268"
           width="54.128159"
           height="38.602341"
           x="-310.63168"
           y="-167.83464" />
        <path
           style="fill:#afe9dd;fill-opacity:1;stroke:none;stroke-width:4;stroke-linecap:round;stroke-linejoin:round;stroke-miterlimit:4;stroke-dasharray:none;stroke-opacity:1"
           d="m -283.56758,-219.03318 c -12.63265,0.0116 -23.18794,9.62127 -24.38162,22.19741 l -0.13214,0 0,8.6672 9.8055,0 c 0.11351,-5.1191 -0.1863,-3.07028 0.0657,-8.18568 0.37958,-7.70635 8.80746,-12.70701 14.64259,-12.87342 7.9243,0.005 14.42022,6.28681 14.69055,14.20649 l 0.0177,0 0,0.50177 0,24.26084 9.80551,0 0,-24.26084 0,-0.50177 -0.0249,0 c -0.27296,-13.33256 -11.15354,-24.00126 -24.48889,-24.012 z"
           id="path4270"
           inkscape:connector-curvature="0"
           sodipodi:nodetypes="cccccccccccccccc" />
        <ellipse
           style="fill:#37c8ab;fill-opacity:1;stroke:none;stroke-width:4;stroke-linecap:round;stroke-linejoin:round;stroke-miterlimit:4;stroke-dasharray:none;stroke-opacity:1"
           id="ellipse4272"
           cx="-303.05557"
           cy="-171.05046"
           rx="5.4477816"
           ry="1.5230358" />
      </g>
    </g>
    <g
       id="g4465"
       transform="translate(-23.233509,-93.944187)">
      <path
         style="fill:#ececec;fill-rule:evenodd;stroke:#000000;stroke-width:1.20000005;stroke-linecap:butt;stroke-linejoin:miter;stroke-miterlimit:4;stroke-dasharray:none;stroke-opacity:1"
         d="m -788.20621,-239.40513 -5.84824,91.06539 119.88884,-0.83546 -1.42623,-90.61797 z"
         id="path4346"
         inkscape:connector-curvature="0"
         sodipodi:nodetypes="ccccc" />
      <path
         inkscape:connector-curvature="0"
         id="path4348"
         d="m -805.78378,-232.11957 38.00529,-0.29793 17.12697,13.76053 62.66775,-0.0409 13.76195,69.64427 -119.88032,0.71461 z"
         style="fill:#ffffff;fill-rule:evenodd;stroke:#000000;stroke-width:1.20000005;stroke-linecap:butt;stroke-linejoin:miter;stroke-miterlimit:4;stroke-dasharray:none;stroke-opacity:1"
         sodipodi:nodetypes="ccccccc" />
    </g>
    <g
       id="lock_purple"
       inkscape:export-xdpi="90"
       inkscape:export-ydpi="90"
       transform="matrix(1.4399999,0,0,1.4399999,348.87943,-62.938172)">
      <rect
         style="fill:none;fill-opacity:1;stroke:none;stroke-width:1.20000005;stroke-linecap:round;stroke-linejoin:round;stroke-miterlimit:4;stroke-dasharray:none;stroke-opacity:1"
         id="rect4283"
         width="100"
         height="100"
         x="-95.461578"
         y="-342.65338" />
      <g
         transform="matrix(1.1135744,0,0,1.1135744,46.580458,15.795437)"
         id="g4435">
        <path
           inkscape:connector-curvature="0"
           id="path4377"
           d="m -109.71868,-276.88239 0,6.19068 54.128165,0 0,-6.19068 -54.128165,0 z"
           style="fill:#aa87de;fill-opacity:1;stroke:none;stroke-width:4;stroke-linecap:round;stroke-linejoin:round;stroke-miterlimit:4;stroke-dasharray:none;stroke-opacity:1" />
        <rect
           y="-270.69174"
           x="-109.71866"
           height="38.602341"
           width="54.128159"
           id="rect4379"
           style="fill:#c6afe9;fill-opacity:1;stroke:none;stroke-width:4;stroke-linecap:round;stroke-linejoin:round;stroke-miterlimit:4;stroke-dasharray:none;stroke-opacity:1" />
        <path
           sodipodi:nodetypes="cccccccccccccccc"
           inkscape:connector-curvature="0"
           id="path4381"
           d="m -82.654605,-321.89032 c -12.63265,0.0116 -23.187945,9.62127 -24.381625,22.19741 l -0.13214,0 0,8.6672 9.805505,0 c 0.11351,-5.1191 -0.1863,-3.07028 0.0657,-8.18568 0.37958,-7.70635 8.80746,-12.70701 14.64259,-12.87342 7.9243,0.005 14.42022,6.28681 14.69055,14.20649 l 0.0177,0 0,0.50177 0,24.26084 9.80551,0 0,-24.26084 0,-0.50177 -0.0249,0 c -0.27296,-13.33256 -11.15354,-24.00126 -24.48889,-24.012 z"
           style="fill:#c6afe9;fill-opacity:1;stroke:none;stroke-width:4;stroke-linecap:round;stroke-linejoin:round;stroke-miterlimit:4;stroke-dasharray:none;stroke-opacity:1" />
        <ellipse
           ry="1.5230358"
           rx="5.4477816"
           cy="-273.90756"
           cx="-102.14255"
           id="ellipse4383"
           style="fill:#8d5fd3;fill-opacity:1;stroke:none;stroke-width:4;stroke-linecap:round;stroke-linejoin:round;stroke-miterlimit:4;stroke-dasharray:none;stroke-opacity:1" />
      </g>
    </g>
    <g
       id="lock_sea"
       inkscape:export-xdpi="90"
       inkscape:export-ydpi="90"
       transform="matrix(1.44,0,0,1.44,309.65243,-16.353067)">
      <rect
         style="fill:none;fill-opacity:1;stroke:none;stroke-width:1.20000005;stroke-linecap:round;stroke-linejoin:round;stroke-miterlimit:4;stroke-dasharray:none;stroke-opacity:1"
         id="rect4287"
         width="100"
         height="100"
         x="-205.07988"
         y="-215.51053" />
      <g
         transform="matrix(1.1135748,0,0,1.1135748,53.313411,28.399302)"
         id="g4447">
        <path
           inkscape:connector-curvature="0"
           id="path4385"
           d="m -214.20308,-174.02525 0,6.19068 54.12816,0 0,-6.19068 -54.12816,0 z"
           style="fill:#87aade;fill-opacity:1;stroke:none;stroke-width:4;stroke-linecap:round;stroke-linejoin:round;stroke-miterlimit:4;stroke-dasharray:none;stroke-opacity:1" />
        <rect
           y="-167.83464"
           x="-214.20311"
           height="38.602341"
           width="54.128159"
           id="rect4387"
           style="fill:#afc6e9;fill-opacity:1;stroke:none;stroke-width:4;stroke-linecap:round;stroke-linejoin:round;stroke-miterlimit:4;stroke-dasharray:none;stroke-opacity:1" />
        <path
           sodipodi:nodetypes="cccccccccccccccc"
           inkscape:connector-curvature="0"
           id="path4389"
           d="m -187.13901,-219.03318 c -12.63265,0.0116 -23.18794,9.62127 -24.38162,22.19741 l -0.13214,0 0,8.6672 9.8055,0 c 0.11351,-5.1191 -0.1863,-3.07028 0.0657,-8.18568 0.37958,-7.70635 8.80746,-12.70701 14.64259,-12.87342 7.9243,0.005 14.42022,6.28681 14.69055,14.20649 l 0.0177,0 0,0.50177 0,24.26084 9.80551,0 0,-24.26084 0,-0.50177 -0.0249,0 c -0.27296,-13.33256 -11.15354,-24.00126 -24.48889,-24.012 z"
           style="fill:#afc6e9;fill-opacity:1;stroke:none;stroke-width:4;stroke-linecap:round;stroke-linejoin:round;stroke-miterlimit:4;stroke-dasharray:none;stroke-opacity:1" />
        <ellipse
           ry="1.5230358"
           rx="5.4477816"
           cy="-171.05046"
           cx="-206.627"
           id="ellipse4391"
           style="fill:#5f8dd3;fill-opacity:1;stroke:none;stroke-width:4;stroke-linecap:round;stroke-linejoin:round;stroke-miterlimit:4;stroke-dasharray:none;stroke-opacity:1" />
      </g>
    </g>
    <g
       id="lock_pink"
       inkscape:export-xdpi="90"
       inkscape:export-ydpi="90"
       transform="matrix(1.44,0,0,1.44,346.27268,-16.353067)">
      <rect
         y="-215.51053"
         x="-93.651314"
         height="100"
         width="100"
         id="rect4285"
         style="fill:none;fill-opacity:1;stroke:none;stroke-width:1.20000005;stroke-linecap:round;stroke-linejoin:round;stroke-miterlimit:4;stroke-dasharray:none;stroke-opacity:1" />
      <g
         transform="matrix(1.1135748,0,0,1.1135748,54.503697,28.399302)"
         id="g4441">
        <path
           style="fill:#ff80e5;fill-opacity:1;stroke:none;stroke-width:4;stroke-linecap:round;stroke-linejoin:round;stroke-miterlimit:4;stroke-dasharray:none;stroke-opacity:1"
           d="m -115.20813,-174.02525 0,6.19068 54.128159,0 0,-6.19068 -54.128159,0 z"
           id="path4401"
           inkscape:connector-curvature="0" />
        <rect
           style="fill:#ffaaee;fill-opacity:1;stroke:none;stroke-width:4;stroke-linecap:round;stroke-linejoin:round;stroke-miterlimit:4;stroke-dasharray:none;stroke-opacity:1"
           id="rect4403"
           width="54.128159"
           height="38.602341"
           x="-115.20816"
           y="-167.83464" />
        <path
           style="fill:#ffaaee;fill-opacity:1;stroke:none;stroke-width:4;stroke-linecap:round;stroke-linejoin:round;stroke-miterlimit:4;stroke-dasharray:none;stroke-opacity:1"
           d="m -88.144061,-219.03318 c -12.632649,0.0116 -23.187939,9.62127 -24.381619,22.19741 l -0.13214,0 0,8.6672 9.8055,0 c 0.11351,-5.1191 -0.1863,-3.07028 0.0657,-8.18568 0.37958,-7.70635 8.807459,-12.70701 14.642589,-12.87342 7.9243,0.005 14.42022,6.28681 14.69055,14.20649 l 0.0177,0 0,0.50177 0,24.26084 9.80551,0 0,-24.26084 0,-0.50177 -0.0249,0 c -0.27296,-13.33256 -11.15354,-24.00126 -24.48889,-24.012 z"
           id="path4405"
           inkscape:connector-curvature="0"
           sodipodi:nodetypes="cccccccccccccccc" />
        <ellipse
           style="fill:#ff55dd;fill-opacity:1;stroke:none;stroke-width:4;stroke-linecap:round;stroke-linejoin:round;stroke-miterlimit:4;stroke-dasharray:none;stroke-opacity:1"
           id="ellipse4407"
           cx="-107.63205"
           cy="-171.05046"
           rx="5.4477816"
           ry="1.5230358" />
      </g>
    </g>
    <path
       style="fill:#b3b3b3;fill-opacity:1;stroke:none;stroke-width:1.20000005;stroke-linecap:round;stroke-linejoin:round;stroke-miterlimit:4;stroke-dasharray:none;stroke-opacity:1"
       d="m -566.48662,-590.32882 -6.97726,19.7917 a 55.455996,55.455673 0 0 0 -5.29684,2.18993 l -18.92462,-9.05822 -15.53372,15.53365 8.32913,19.61414 a 55.455996,55.455673 0 0 0 -2.24653,5.39977 l -19.80212,6.98152 0,21.96876 19.74893,7.97569 a 55.455996,55.455673 0 0 0 2.23196,5.4255 l -9.05827,18.92362 15.5346,15.53451 19.61427,-8.32996 a 55.455996,55.455673 0 0 0 5.3989,2.24654 l 6.98157,19.80285 21.9689,0 7.97577,-19.74881 a 55.455996,55.455673 0 0 0 5.5542,-2.29029 l 19.59191,8.31967 15.5346,-15.53451 -9.06683,-18.93992 a 55.455996,55.455673 0 0 0 2.23454,-5.40662 l 19.75495,-7.97827 0,-21.96876 -19.79184,-6.97724 a 55.455996,55.455673 0 0 0 -2.24741,-5.42721 l 8.31973,-19.59098 -15.53376,-15.53365 -18.94175,9.06594 a 55.455996,55.455673 0 0 0 -5.4058,-2.23367 l -7.97831,-19.75568 -21.9689,0 z m 11.54848,41.38819 a 30.611709,30.61153 0 0 1 30.61113,30.61181 30.611709,30.61153 0 0 1 -30.61113,30.61182 30.611709,30.61153 0 0 1 -30.61201,-30.61182 30.611709,30.61153 0 0 1 30.61201,-30.61181 z"
       id="settings"
       inkscape:connector-curvature="0" />
    <g
       id="lock"
       inkscape:export-xdpi="90"
       inkscape:export-ydpi="90"
       transform="matrix(1.44,0,0,1.44,245.6691,-62.93814)">
      <rect
         y="-342.65338"
         x="-434.3656"
         height="100"
         width="100"
         id="rect4277"
         style="fill:none;fill-opacity:1;stroke:none;stroke-width:1.20000005;stroke-linecap:round;stroke-linejoin:round;stroke-miterlimit:4;stroke-dasharray:none;stroke-opacity:1" />
      <g
         id="g4267"
         transform="matrix(1.1135744,0,0,1.1135744,42.144472,12.686426)">
        <path
           inkscape:connector-curvature="0"
           id="path4269"
           d="m -410.07402,-274.09045 0,6.19068 54.12816,0 0,-6.19068 -54.12816,0 z"
           style="fill:#b3b3b3;fill-opacity:1;stroke:none;stroke-width:4;stroke-linecap:round;stroke-linejoin:round;stroke-miterlimit:4;stroke-dasharray:none;stroke-opacity:1" />
        <rect
           y="-267.89984"
           x="-410.07404"
           height="38.602341"
           width="54.128159"
           id="rect4271"
           style="fill:#cccccc;fill-opacity:1;stroke:none;stroke-width:4;stroke-linecap:round;stroke-linejoin:round;stroke-miterlimit:4;stroke-dasharray:none;stroke-opacity:1" />
        <path
           sodipodi:nodetypes="cccccccccccccccc"
           inkscape:connector-curvature="0"
           id="path4273"
           d="m -383.00995,-319.09838 c -12.63265,0.0116 -23.18794,9.62127 -24.38162,22.19741 l -0.13214,0 0,8.6672 9.8055,0 c 0.11351,-5.1191 -0.1863,-3.07028 0.0657,-8.18568 0.37958,-7.70635 8.80746,-12.70701 14.64259,-12.87342 7.9243,0.005 14.42022,6.28681 14.69055,14.20649 l 0.0177,0 0,0.50177 0,24.26084 9.80551,0 0,-24.26084 0,-0.50177 -0.0249,0 c -0.27296,-13.33256 -11.15354,-24.00126 -24.48889,-24.012 z"
           style="fill:#cccccc;fill-opacity:1;stroke:none;stroke-width:4;stroke-linecap:round;stroke-linejoin:round;stroke-miterlimit:4;stroke-dasharray:none;stroke-opacity:1" />
        <ellipse
           ry="1.5230358"
           rx="5.4477816"
           cy="-271.11566"
           cx="-402.49792"
           id="ellipse4275"
           style="fill:#999999;fill-opacity:1;stroke:none;stroke-width:4;stroke-linecap:round;stroke-linejoin:round;stroke-miterlimit:4;stroke-dasharray:none;stroke-opacity:1" />
      </g>
    </g>
    <g
       id="eye"
       transform="translate(157.5838,149.50258)">
      <g
         transform="matrix(0.80424103,0,0,0.80424103,-288.86747,-241.02733)"
         id="g4366">
        <path
           style="fill:#ececec;fill-opacity:1;stroke:none;stroke-width:1.20000005;stroke-linecap:round;stroke-linejoin:round;stroke-miterlimit:4;stroke-dasharray:none;stroke-opacity:1"
           d="m -730.36142,-551.25498 c 0,0 -33.5354,51.01271 -89.8825,51.01271 -56.3471,0 -89.1683,-51.01271 -89.1683,-51.01271 0,0 32.8212,-51.0127 89.1683,-51.0127 56.3471,0 89.8825,51.0127 89.8825,51.0127 z"
           id="path4222"
           inkscape:connector-curvature="0"
           sodipodi:nodetypes="cscsc" />
        <circle
           style="fill:#333333;fill-opacity:1;stroke:none;stroke-width:1.20000005;stroke-linecap:round;stroke-linejoin:round;stroke-miterlimit:4;stroke-dasharray:none;stroke-opacity:1"
           id="path4225"
           cx="-820.2439"
           cy="-551.25494"
           r="37.880722" />
        <circle
           r="12.374371"
           cy="-566.15472"
           cx="-835.14368"
           id="circle4227"
           style="fill:#ffffff;fill-opacity:1;stroke:none;stroke-width:1.20000005;stroke-linecap:round;stroke-linejoin:round;stroke-miterlimit:4;stroke-dasharray:none;stroke-opacity:1" />
        <circle
           style="fill:#ffffff;fill-opacity:1;stroke:none;stroke-width:1.20000005;stroke-linecap:round;stroke-linejoin:round;stroke-miterlimit:4;stroke-dasharray:none;stroke-opacity:1"
           id="circle4253"
           cx="-823.17944"
           cy="-550.26184"
           r="4.6957989" />
      </g>
      <rect
         y="-756.3692"
         x="-1020.2541"
         height="144"
         width="144"
         id="rect4372"
         style="fill:none;fill-opacity:1;stroke:none;stroke-width:1.20000005;stroke-linecap:round;stroke-linejoin:round;stroke-miterlimit:4;stroke-dasharray:none;stroke-opacity:1" />
    </g>
  </g>
</svg>
